<svg xmlns="http://www.w3.org/2000/svg" xml:space="preserve" width="128" height="128" viewBox="0 0 24 24"><path d="M8.288 16.462a.75.75 0 0 1-.53-1.281l7.424-7.425a.75.75 0 1 1 1.061 1.061l-7.424 7.425a.748.748 0 0 1-.531.22z"/><path d="M15.712 16.462a.744.744 0 0 1-.53-.22L7.758 8.818a.75.75 0 1 1 1.061-1.061l7.424 7.425a.75.75 0 0 1-.531 1.28z"/><path d="M21.25 24H2.75A2.752 2.752 0 0 1 0 21.25V2.75A2.752 2.752 0 0 1 2.75 0h18.5A2.752 2.752 0 0 1 24 2.75v18.5A2.752 2.752 0 0 1 21.25 24zM2.75 1.5c-.689 0-1.25.561-1.25 1.25v18.5c0 .689.561 1.25 1.25 1.25h18.5c.689 0 1.25-.561 1.25-1.25V2.75c0-.689-.561-1.25-1.25-1.25H2.75z"/></svg>